<?xml version="1.0" encoding="UTF-8"?>
<svg width="512" height="512" version="1.1" viewBox="0 0 512 512" xmlns="http://www.w3.org/2000/svg" xmlns:cc="http://creativecommons.org/ns#" xmlns:dc="http://purl.org/dc/elements/1.1/" xmlns:rdf="http://www.w3.org/1999/02/22-rdf-syntax-ns#">
  <path d="m 401.18135,235.11974 v 41.76053 q 0,8.12011 -6.38007,14.50019 -6.38008,6.38007 -14.50019,5.80009 h -82.94108 v 82.94107 q 0,8.7001 -6.38008,14.50019 -6.38007,5.80007 -14.50018,6.38008 H 235.2992 q -8.7001,0 -14.50018,-6.38008 -5.80008,-6.3801 -6.38009,-14.50019 v -82.94107 h -82.94107 q -8.12011,0 -14.5002,-5.80009 -6.38007,-5.80008 -5.80008,-14.50019 v -41.76053 q 0,-8.12012 5.80008,-14.5002 5.80008,-6.38007 14.5002,-5.80009 h 82.94107 v -82.94107 q 0,-8.7001 6.38009,-14.50019 6.38007,-5.80007 14.50018,-6.38008 h 41.18055 q 8.70009,0 14.50018,6.38008 5.80007,6.3801 6.38008,14.50019 v 82.94107 h 82.94108 q 8.12011,0 14.50019,5.80009 6.38007,5.80008 6.38007,14.5002 z M 504.42271,256 q 0,-67.86088 -33.06043,-124.70163 Q 438.30184,74.457636 380.88109,40.817194 323.46036,7.1767684 256.17946,7.1767684 q -67.28085,0 -125.28161,33.6404256 Q 72.897092,74.457636 40.99668,131.29837 9.0962686,188.13912 7.3562381,256 5.6162233,323.86088 40.99668,380.70163 q 35.380456,56.84073 89.90117,90.48118 54.52071,33.64042 125.28161,33.64042 70.76093,0 124.70163,-33.64042 53.94071,-33.64045 90.48119,-90.48118 Q 507.90275,323.86088 504.42271,256 Z" fill="#5c6370"/>
</svg>
