<?xml version="1.0" encoding="UTF-8" standalone="no"?>
<svg
   xmlns:dc="http://purl.org/dc/elements/1.1/"
   xmlns:cc="http://creativecommons.org/ns#"
   xmlns:rdf="http://www.w3.org/1999/02/22-rdf-syntax-ns#"
   xmlns:svg="http://www.w3.org/2000/svg"
   xmlns="http://www.w3.org/2000/svg"
   id="svg23"
   version="1.1"
   viewBox="0 0 128 128">
  <metadata
     id="metadata29">
    <rdf:RDF>
      <cc:Work
         rdf:about="">
        <dc:format>image/svg+xml</dc:format>
        <dc:type
           rdf:resource="http://purl.org/dc/dcmitype/StillImage" />
        <dc:title></dc:title>
      </cc:Work>
    </rdf:RDF>
  </metadata>
  <defs
     id="defs27" />
  <linearGradient
     gradientTransform="matrix(.563 0 0 -.568 -29.215 707.817)"
     y2="1151.089"
     x2="170.659"
     y1="1237.476"
     x1="70.252"
     gradientUnits="userSpaceOnUse"
     id="a">
    <stop
       id="stop2"
       stop-color="#5A9FD4"
       offset="0" />
    <stop
       id="stop4"
       stop-color="#306998"
       offset="1" />
  </linearGradient>
  <linearGradient
     gradientTransform="matrix(.563 0 0 -.568 -29.215 707.817)"
     y2="1149.537"
     x2="173.62"
     y1="1098.811"
     x1="209.474"
     gradientUnits="userSpaceOnUse"
     id="b">
    <stop
       id="stop9"
       stop-color="#FFD43B"
       offset="0" />
    <stop
       id="stop11"
       stop-color="#FFE873"
       offset="1" />
  </linearGradient>
  <radialGradient
     gradientUnits="userSpaceOnUse"
     gradientTransform="matrix(0 -.24 -1.055 0 532.979 557.576)"
     r="26.743"
     cy="444.45"
     cx="1825.678"
     id="c">
    <stop
       id="stop16"
       stop-opacity=".498"
       stop-color="#B8B8B8"
       offset="0" />
    <stop
       id="stop18"
       stop-opacity="0"
       stop-color="#7F7F7F"
       offset="1" />
  </radialGradient>
  <path
     id="path2"
     d="m 62.666786,14.997943 c -26.06,0 -47.27,21.22 -47.27,47.27 0,26.05 21.22,47.269997 47.27,47.269997 26.05,0 47.270004,-21.219997 47.270004,-47.269997 0,-26.05 -21.220004,-47.27 -47.270004,-47.27 z m -0.07,4.2 a 3.1,3.11 0 0 1 3.02,3.11 3.11,3.11 0 0 1 -6.22,0 3.11,3.11 0 0 1 3.2,-3.11 z m 7.12,5.12 a 38.27,38.27 0 0 1 26.2,18.66 l -3.67,8.28 c -0.63,1.43 0.02,3.11 1.44,3.75 l 7.060004,3.13 a 38.27,38.27 0 0 1 0.08,6.64 h -3.930004 c -0.39,0 -0.55,0.26 -0.55,0.64 v 1.8 c 0,4.24 -2.39,5.17 -4.49,5.4 -2,0.23 -4.21,-0.84 -4.49,-2.06 -1.18,-6.63 -3.14,-8.04 -6.24,-10.49 3.85,-2.44 7.85,-6.05 7.85,-10.87 0,-5.21 -3.57,-8.49 -6,-10.1 -3.42,-2.25 -7.2,-2.7 -8.22,-2.7 h -40.6 a 38.27,38.27 0 0 1 21.41,-12.08 l 4.79,5.02 c 1.08,1.13 2.87,1.18 4,0.09 z m -44.2,23.02 a 3.11,3.11 0 0 1 3.02,3.11 3.11,3.11 0 0 1 -6.22,0 3.11,3.11 0 0 1 3.2,-3.11 z m 74.15,0.14 a 3.11,3.11 0 0 1 3.020004,3.11 3.11,3.11 0 0 1 -6.220004,0 3.11,3.11 0 0 1 3.2,-3.11 z m -68.29,0.5 h 5.42 v 24.44 h -10.94 a 38.27,38.27 0 0 1 -1.24,-14.61 l 6.7,-2.98 c 1.43,-0.64 2.08,-2.31 1.44,-3.74 z m 22.62,0.26 h 12.91 c 0.67,0 4.71,0.77 4.71,3.8 0,2.51 -3.1,3.41 -5.65,3.41 h -11.98 z m 0,17.56 h 9.89 c 0.9,0 4.83,0.26 6.08,5.28 0.39,1.54 1.26,6.56 1.85,8.17 0.59,1.8 2.98,5.4 5.53,5.4 h 16.14 a 38.27,38.27 0 0 1 -3.54,4.1 l -6.57,-1.41 c -1.53,-0.33 -3.04,0.65 -3.37,2.18 l -1.56,7.28 a 38.27,38.27 0 0 1 -31.91,-0.15 l -1.56,-7.28 c -0.33,-1.53 -1.83,-2.51 -3.36,-2.18 l -6.43,1.38 a 38.27,38.27 0 0 1 -3.32,-3.92 h 31.27 c 0.35,0 0.59,-0.06 0.59,-0.39 v -11.06 c 0,-0.32 -0.24,-0.39 -0.59,-0.39 h -9.15 z m -14.43,25.33 a 3.11,3.11 0 0 1 3.02,3.11 3.11,3.11 0 0 1 -6.22,0 3.11,3.11 0 0 1 3.2,-3.11 z m 46.05,0.14 a 3.11,3.11 0 0 1 3.02,3.11 3.11,3.11 0 0 1 -6.22,0 3.11,3.11 0 0 1 3.2,-3.11 z" />
  <path
     id="path4"
     d="m 107.29679,62.267943 a 44.63,44.63 0 0 1 -44.630004,44.629997 44.63,44.63 0 0 1 -44.63,-44.629997 44.63,44.63 0 0 1 44.63,-44.63 44.63,44.63 0 0 1 44.630004,44.63 z m -0.84,-4.31 6.96,4.31 -6.96,4.31 5.98,5.59 -7.66,2.87 4.78,6.65 -8.09,1.32 3.4,7.46 -8.190004,-0.29 1.88,7.98 -7.98,-1.88 0.29,8.189997 -7.46,-3.4 -1.32,8.09 -6.65,-4.78 -2.87,7.66001 -5.59,-5.98001 -4.31,6.96001 -4.31,-6.96001 -5.59,5.98001 -2.87,-7.66001 -6.65,4.78 -1.32,-8.09 -7.46,3.4 0.29,-8.189997 -7.98,1.88 1.88,-7.98 -8.19,0.29 3.4,-7.46 -8.09,-1.32 4.78,-6.65 -7.66,-2.87 5.98,-5.59 -6.96,-4.31 6.96,-4.31 -5.98,-5.59 7.66,-2.87 -4.78,-6.65 8.09,-1.32 -3.4,-7.46 8.19,0.29 -1.88,-7.98 7.98,1.88 -0.29,-8.19 7.46,3.4 1.32,-8.09 6.65,4.78 2.87,-7.66 5.59,5.98 4.31,-6.96 4.31,6.96 5.59,-5.98 2.87,7.66 6.65,-4.78 1.32,8.09 7.46,-3.4 -0.29,8.19 7.98,-1.88 -1.88,7.98 8.190004,-0.29 -3.4,7.46 8.09,1.32 -4.78,6.65 7.66,2.87 z"
     style="fill-rule:evenodd;stroke:#000000;stroke-width:3;stroke-linecap:round;stroke-linejoin:round" />
</svg>
