<?xml version="1.0" encoding="UTF-8" standalone="no"?>
<svg
   xmlns:dc="http://purl.org/dc/elements/1.1/"
   xmlns:cc="http://creativecommons.org/ns#"
   xmlns:rdf="http://www.w3.org/1999/02/22-rdf-syntax-ns#"
   xmlns:svg="http://www.w3.org/2000/svg"
   xmlns="http://www.w3.org/2000/svg"
   viewBox="0 0 128 128"
   version="1.1"
   id="svg4">
  <metadata
     id="metadata10">
    <rdf:RDF>
      <cc:Work
         rdf:about="">
        <dc:format>image/svg+xml</dc:format>
        <dc:type
           rdf:resource="http://purl.org/dc/dcmitype/StillImage" />
        <dc:title></dc:title>
      </cc:Work>
    </rdf:RDF>
  </metadata>
  <defs
     id="defs8">
    <linearGradient
       id="_Linear1"
       x1="0"
       y1="0"
       x2="1"
       y2="0"
       gradientUnits="userSpaceOnUse"
       gradientTransform="matrix(3.08228,-10.3064,8.72379,3.56577,19.8394,42.498)">
      <stop
         offset="0"
         style="stop-color:#ff9700;stop-opacity:1"
         id="stop36" />
      <stop
         offset="0.53"
         style="stop-color:#f48e00;stop-opacity:1"
         id="stop38" />
      <stop
         offset="1"
         style="stop-color:#ce6e00;stop-opacity:1"
         id="stop40" />
    </linearGradient>
  </defs>
  <path
     id="path2"
     d="m 38.583409,90.481547 h -3.969385 v 5.199496 h 3.969385 c 0.951058,0 1.662927,-0.227799 2.152694,-0.694785 0.484071,-0.455597 0.728954,-1.093432 0.728954,-1.896421 0,-0.802988 -0.244883,-1.446518 -0.728954,-1.90781 -0.489767,-0.455596 -1.207331,-0.683395 -2.152694,-0.683395 m 16.811511,3.644772 c 0.170849,-0.301832 0.267663,-0.683394 0.267663,-1.161771 0,-0.768819 -0.256273,-1.366789 -0.780209,-1.822386 -0.523936,-0.432816 -1.218721,-0.65492 -2.078659,-0.65492 h -4.237047 v 4.852103 h 4.168708 c 1.28706,0 2.175473,-0.398647 2.659544,-1.195941 M 63.999999,15.592873 7.0504357,112.40713 H 120.94956 L 63.999999,15.592873 M 41.70994,95.908841 c -0.740344,0.694785 -1.765436,1.047872 -3.035412,1.047872 H 34.614024 V 101.2564 H 33.247235 V 89.183097 h 5.427293 c 1.275671,0 2.289373,0.358783 3.041107,1.064957 0.740344,0.70048 1.116211,1.640148 1.116211,2.819004 0,1.19594 -0.375867,2.135608 -1.121906,2.836088 m 13.952643,5.353254 -2.904428,-4.63569 h -4.197182 v 4.6243 h -1.36679 V 89.171707 h 5.774686 c 1.224415,0 2.209643,0.341698 2.949987,1.025093 0.740344,0.672004 1.110517,1.594587 1.110517,2.756358 0,1.503469 -0.626446,2.528561 -1.879336,3.075277 -0.341697,0.159459 -0.694785,0.284748 -1.036482,0.341697 l 3.172091,4.874878 h -1.623063 m 7.648326,0 H 61.94412 V 89.171707 h 1.366789 v 12.073303 m 13.417318,-0.75173 c -0.842854,0.59797 -2.01032,0.89411 -3.508093,0.89411 -1.685708,0 -2.978463,-0.3417 -3.861181,-1.05357 -0.797294,-0.626443 -1.2415,-1.537636 -1.349705,-2.699407 h 1.42374 c 0.04556,0.825768 0.444206,1.457908 1.19594,1.89642 0.660615,0.381562 1.526249,0.569497 2.60829,0.569497 2.260898,0 3.388499,-0.711871 3.388499,-2.129915 0,-0.489766 -0.199323,-0.871328 -0.60936,-1.150381 -0.398647,-0.284748 -0.911193,-0.512546 -1.526248,-0.683395 -0.609361,-0.187933 -1.27567,-0.358782 -1.981845,-0.512546 -0.706175,-0.153764 -1.36679,-0.370172 -1.993235,-0.615055 -0.626445,-0.244883 -1.121906,-0.580886 -1.526248,-0.985228 -0.398647,-0.410037 -0.60936,-0.956752 -0.60936,-1.651537 0,-0.985227 0.370172,-1.782521 1.121906,-2.403272 0.751734,-0.615055 1.890726,-0.922583 3.416974,-0.922583 1.520553,0 2.705104,0.341698 3.547958,1.053567 0.763124,0.626446 1.167466,1.423739 1.21872,2.391882 H 76.28402 c -0.125289,-1.002312 -0.768819,-1.662927 -1.936285,-1.993235 -0.410037,-0.113899 -0.922583,-0.170848 -1.537638,-0.170848 -0.615056,0 -1.127602,0.05695 -1.549028,0.199323 -0.421427,0.142374 -0.740345,0.313223 -0.968143,0.512546 -0.239188,0.199324 -0.398647,0.421427 -0.472681,0.66631 -0.07403,0.244883 -0.1139,0.501156 -0.1139,0.774514 0,0.284748 0.1139,0.529631 0.353088,0.757429 0.239188,0.227799 0.546716,0.427122 0.939668,0.586581 0.387257,0.159459 0.831463,0.296138 1.326924,0.415732 0.501157,0.113899 1.008008,0.244883 1.520554,0.370172 0.512546,0.125289 1.025092,0.273358 1.526248,0.438511 0.495461,0.170849 0.939668,0.370173 1.326925,0.626446 0.871328,0.546715 1.29845,1.292755 1.29845,2.243812 0,1.138992 -0.421427,1.993235 -1.26428,2.59121 m 16.424254,0.75173 v -9.988954 l -4.464845,5.740516 -4.53888,-5.740516 V 101.2621 H 82.793356 V 89.188792 h 1.583198 l 4.316777,5.729126 4.242742,-5.723431 h 1.594588 v 12.073303 h -1.36679"
     style="fill:#e6e6e6;stroke-width:0.56949562" />
</svg>
