<?xml version="1.0" encoding="UTF-8"?>
<svg version="1.1" viewBox="0 0 128 128" xmlns="http://www.w3.org/2000/svg" xmlns:cc="http://creativecommons.org/ns#" xmlns:dc="http://purl.org/dc/elements/1.1/" xmlns:rdf="http://www.w3.org/1999/02/22-rdf-syntax-ns#">
 <g transform="matrix(.059075 0 0 -.059075 24.337 126.03)">
  <path d="m429.6 92.777 724.92-92.777 41.03 901.91 147.25 814.27-336.8 15.25-150.19 77.53-688.06 29.03-43.906-812.76-123.84-928.33 429.6-4.1211" fill="#1e5cb3"/>
  <path d="m533.94 350.97 730.48-22.828-45.65 901.68 68.48 824.64-336.71-17.12-156.94 62.78-687.68-37.1 34.238-813.23-34.238-935.92 428.01 37.094" fill="#f14729"/>
  <path d="m784.8 880.95-76.301-20.808 41.617 100.58 41.621 280.94-52.023 10.4 62.43 86.71 77.773 292.28-136.73-28.69s72.093 132 148.61 217.98l-100.06 76.82s-322.34-141.98-235.64-603.27l-66.633 11.66 63.898-483.56-54.019-13.871s55.347-112.93 132.85-166.48c7.036-4.86-97.113 378.04 13.872 759.56l10.406-24.28s-88.442-406.66 0-735.28c0 0 4.074-7.801 48.293-2.602 0 0 80.035 150.87 80.035 241.91" fill="#1e5cb3"/>
  <g fill="#fff">
   <path d="m216.43 534.66h15.664v32.657c6.902 0 13.539 0 20.18 1.062v-33.719h23.363v-6.105h-23.363v-81.246c0-4.778 0-11.946 10.085-11.946 6.907 0 10.622 4.778 14.872 9.825l4.246-2.922c-5.043-10.09-18.055-16.196-28.672-16.196-19.117 0-21.242 10.356-21.242 23.098v79.387h-15.133v6.105"/>
   <path d="m437.27 462.44c-6.105-18.851-16.726-35.312-44.339-36.375-41.153 0-53.633 34.25-53.633 52.571 0 47.258 37.969 58.676 53.101 58.676 17.258 0 41.684-7.965 41.684-28.411 0-7.168-4.512-14.07-11.945-14.07-7.168 0-12.481 4.777-12.481 12.477 0 10.355 8.496 11.683 8.496 14.605 0 7.168-16.726 10.09-22.566 10.09-25.488 0-32.125-18.586-32.125-53.367 0-15.93 3.98-28.145 5.574-31.864 3.981-8.757 12.215-14.335 26.02-15.132 15.398-0.797 30.265 11.683 36.636 30.8h5.578"/>
   <path d="m498.82 429.52v6.105h20.446v170.72h-20.446v6.105h11.418c9.825 0 20.18 0.531 29.735 2.391v-179.22h20.445v-6.105h-61.598"/>
   <path d="m680.11 1435.6s-46.804-208.69-33.336-547.04c4.043-101.49 15.141-194.78 28.696-275.68l0.074-4e-3c8.816-71.035 14.715-96.75 37.703-182.35l-1.344-55.204s-184.06 587.68-31.793 1060.3"/>
   <path d="m793.1 1616.5s41.394 20.62 100.74 28.12c0 0 64.863-118.89-94.773-321.89 0 0 95.234 212.59 72.773 279.19 0 0-25.117 15.61-78.738 14.58"/>
   <path d="m773.48 1259.6s37.172-8.6 55.02 5.85c0 0-35.164-137.22-25.945-212.7 9.218-75.485-57.289-123.81-57.289-123.81s56.652 71.679 38.847 130.07c-12.347 40.47 1.465 144.04 17.043 176.93 0 0-14.547 2.04-27.676 23.66"/>
   <path d="m736.72 898.08s61.429 7.352 67.886 38.383c0 0 7.52-185.61-77.832-262.09 0 0 65.125 101.58 54.907 206.66l-44.961 17.047"/>
   <path d="m563.92 820.82s-19.809-22.187-79.254 26.754c0 0 18.941-124.75 136.59-181.85 0 0-80.965 61.003-102.78 126.9 0 0 28.613 8.422 45.445 28.199"/>
   <path d="m544.96 868.14s-80.383 204.02-63.16 479.7c0 0 18.773-49.93 79.101-67.43 0 0-28.422-5.82-45.039-3.3 0 0-42.05-116.38 29.098-408.97"/>
   <path d="m882.6 1816.2s-30.122 221.37-218.58-2.5c-150.06-178.26-132.18-329.6-122.97-414.04 2.355-21.6-27.918 225.51 136.49 388.12 164.41 162.63 201.54 37.86 205.06 28.42"/>
  </g>
  <g fill="#fff200">
   <path d="m605 2005s-147.87 42.24-194.93-447.89c0 0-36.312 151.28 57.61 365.24 93.918 213.96 137.32 82.65 137.32 82.65"/>
   <path d="m421.56 2040.8s-75.422-113.44-58.309-234.27c0 0-57.203 227.45 58.309 234.27"/>
   <path d="m976.61 1722.7s89.187 32.9-38.519-299.06c0 0 66.106 97.01 107.71 249.41 26.71 97.81-69.187 49.65-69.187 49.65"/>
   <path d="m1120.9 1748.6s63.05-57.08 18.37-132.58c0 0 112.16 117.85-18.37 132.58"/>
  </g>
  <g fill="#fff">
   <path d="m161.51 149.4h-15.211v78.003h20.691c16.348 0 27.004-6.515 27.004-24.207 0-16.554-9.004-24.625-24.933-24.625h-7.551zm0 41.796h3.101c9 0 13.864 1.965 13.864 12.102 0 10.035-5.793 11.484-14.278 11.484h-2.687v-23.586"/>
   <path d="m270.17 188.5c0 21.828 15.828 40.969 38.59 40.969 22.758 0 38.586-19.141 38.586-40.969 0-22.348-15.828-41.176-38.586-41.176-22.762 0-38.59 18.828-38.59 41.176zm15.723 0.621c0-11.793 9.933-26.797 22.867-26.797 12.929 0 22.863 15.004 22.863 26.797 0 12.621-9.52 25.348-22.863 25.348-13.348 0-22.867-12.727-22.867-25.348"/>
   <path d="m452.42 174.22h0.207l15.516 54.211h9l16.14-54.211h0.207l15.313 53.175h15.929l-26.379-79.554h-11.175l-15.516 51h-0.207l-14.691-51h-11.172l-24.832 79.554h15.933l15.727-53.175"/>
   <path d="m617.07 214.16v-17.172h24.211v-13.242h-24.211v-21.105h25.141v-13.242h-40.348v78.003h40.348v-13.242h-25.141"/>
   <path d="m778.08 149.4h-18.414l-18.934 31.449h-0.207v-31.449h-15.207v78.003h20.59c15.414 0 26.071-6.828 26.071-23.484 0-9.93-5.485-19.863-15.934-21.621zm-37.555 42.105h1.969c8.379 0 14.278 2.484 14.278 12 0 9.621-6.106 11.484-14.176 11.484h-2.071v-23.484"/>
   <path d="m871.23 214.16v-17.172h24.208v-13.242h-24.208v-21.105h25.141v-13.242h-40.348v78.003h40.348v-13.242h-25.141"/>
   <path d="m979.48 227.4h21.723c22.56 0 37.66-16.863 37.66-39.105 0-21.934-15.52-38.898-37.76-38.898h-21.623zm15.207-64.761h2.484c18.722 0 25.972 10.343 25.972 25.761 0 16.965-8.69 25.758-25.972 25.758h-2.484v-51.519"/>
  </g>
 </g>
</svg>
